<svg width="160" height="160" viewBox="0 0 160 160" fill="none" xmlns="http://www.w3.org/2000/svg">
<!-- <rect width="160" height="160" fill="white"/> -->
<path fill-rule="evenodd" clip-rule="evenodd" d="M35.6966 12.6966V30.4719H94.1011H106.798V43.1686L106.798 78.7191H123.303L123.303 12.6966H35.6966ZM106.798 91.4157H136V78.7191V12.6966V0H123.303H35.6966H23H23L23 43.1685L23 43.1686H94.1011L94.1011 78.7191H35.6966H23V91.4157V147.281V159.978L35.6966 159.978L50.9326 159.978L63.6292 159.978V147.281L63.6292 121.888L94.1011 121.888L106.798 121.888V109.191L106.798 91.4157ZM63.6292 109.191H94.1011V91.4157H35.6966L35.6966 147.281H50.9326L50.9326 121.888V109.191H63.6292Z" fill="black"/>
</svg>
