<svg width="82" height="80" viewBox="0 0 82 80" fill="none" xmlns="http://www.w3.org/2000/svg">
<path d="M72 26.667C67.1667 26.667 64.4667 31.467 65.5667 35.0337L53.7334 46.9003C52.7334 46.6003 51.2667 46.6003 50.2667 46.9003L41.7667 38.4003C42.9 34.8337 40.2 30.0003 35.3334 30.0003C30.5 30.0003 27.7667 34.8003 28.9 38.4003L13.7 53.567C10.1334 52.467 5.33337 55.167 5.33337 60.0003C5.33337 63.667 8.33337 66.667 12 66.667C16.8334 66.667 19.5334 61.867 18.4334 58.3003L33.6 43.1003C34.6 43.4003 36.0667 43.4003 37.0667 43.1003L45.5667 51.6003C44.4334 55.167 47.1334 60.0003 52 60.0003C56.8334 60.0003 59.5667 55.2003 58.4334 51.6003L70.3 39.767C73.8667 40.867 78.6667 38.167 78.6667 33.3337C78.6667 29.667 75.6667 26.667 72 26.667Z" fill="#E0E0E0"/>
<path d="M52 30L55.1333 23.1L62 20L55.1333 16.9L52 10L48.9333 16.9L42 20L48.9333 23.1L52 30Z" fill="#E0E0E0"/>
<path d="M13.6667 36.6667L15.3334 30L22 28.3333L15.3334 26.6667L13.6667 20L12 26.6667L5.33337 28.3333L12 30L13.6667 36.6667Z" fill="#E0E0E0"/>
</svg>
