<svg fill="none" height="52" viewBox="0 0 425 52" width="425" xmlns="http://www.w3.org/2000/svg" xmlns:xlink="http://www.w3.org/1999/xlink"><clipPath id="a"><path d="m0 0h425v51.1203h-425z"/></clipPath><g clip-path="url(#a)"><path d="m7.69886 49.2877c-.51838-.2545-5.81096-3.9005-6.841316-4.8867v-42.57483h11.941856c.4416.27997 6.4702 4.32047 6.963 4.75952l8.326 13.55951c.1536.2545.4352.4073.736.4073s.5824-.1591.736-.42l10.9563-18.29996h11.9419c.5184.26088 5.811 3.90687 6.8349 4.88677l.128 42.56839h-13.2346c-.5184-.2545-5.8174-3.9068-6.8413-4.8867v-.2864c0-.3818-.2624-.719-.64-.8208-.0768-.0191-.1472-.0318-.224-.0318-.3008 0-.5824.1527-.7424.4199l-1.0431 1.7499h-6.3998c-.3392-.2291-6.3677-4.2251-6.9565-4.7532l-.8192-1.3553c-.1599-.2545-.4415-.4072-.7295-.4072-.0768 0-.16.0127-.2368.0318-.3712.1081-.6272.439-.6272.8208v9.519z" fill="#6d495e"/><path d="m52.0938 2.68526c1.152.64903 5.0622 3.34694 6.3422 4.41592l.1216 41.32132h-12.0059c-1.152-.6491-5.0686-3.3533-6.3486-4.4223-.0448-.7254-.5503-1.349-1.2671-1.5462-.1472-.0382-.3008-.0573-.4544-.0573-.5952 0-1.1647.3118-1.4783.8399l-.7936 1.3299h-5.5038c-1.2607-.7445-5.6893-3.7033-6.6621-4.4287l-.7936-1.2726c-.3199-.5154-.8767-.8081-1.4655-.8081-.1536 0-.3136.0191-.4736.0637-.7424.2099-1.2479.8781-1.2479 1.648v8.66h-12.00593c-1.15196-.6426-5.06219-3.3469-6.33574-4.4159v-41.32127h10.66837c1.2607.7381 5.683 3.69689 6.6621 4.42864l8.3005 13.47043c.3136.5091.8703.8145 1.4655.8145h.0128c.6016 0 1.1584-.3182 1.4655-.8336l10.7068-17.87997h11.0907m.3648-1.71165h-11.9419c-.3008 0-.5824.15908-.7359.4136l-10.9564 18.30632-8.454-13.70588c-.16-.25452-7.2765-5.01404-7.5709-5.01404h-11.941936c-.47358 0-.857564.38178-.857564.85264v42.85478c0 .4708 7.2253 5.4594 7.69888 5.4594h13.24102c.4736 0 .8576-.3818.8576-.8526v-9.5191l.9344 1.5017c.1536.2482 7.2701 5.0077 7.5708 5.0077h6.4062c.3008 0 .5824-.1591.7359-.4136l1.0432-1.7498v.5726c0 .4709 7.2317 5.4531 7.6989 5.4531h13.241c.224 0 .4416-.0891.608-.2481.16-.1591.2496-.3754.2496-.6045l-.1216-42.85477c0-.47086-7.2253-5.453087-7.6989-5.453087z" fill="#000"/><path d="m138.893 50.2678c-3.436 0-6.655-.5472-9.574-1.6226-2.854-1.0563-12.601-7.4892-14.476-9.2263-2.15-1.9917-3.833-4.3778-5.017-7.1011-1.184-2.7107-1.786-5.7649-1.786-9.0546 0-3.2896.602-6.3439 1.786-9.0609 1.184-2.7233 2.873-5.10946 5.017-7.10107 2.144-1.99162 4.71-3.54419 7.635-4.61954 2.918-1.07534 6.137-1.622559 9.574-1.622559 4.205 0 7.987.744469 11.238 2.201599 2.528 1.13897 12.889 8.31647 14.931 10.97617l-9.171 8.1383c-1.261-1.5844-2.682-2.8316-4.211-3.7033-.659-.3754-1.383-.6745-2.202-.9036-.077-.019-.153-.0318-.237-.0318-.057 0-.121 0-.179.0191-.109-.0827-.224-.14-.358-.1654-.717-.14-1.453-.2354-2.227-.2354-1.511 0-2.899.2481-4.128.7381-1.222.4835-2.291 1.2089-3.168 2.1443-.877.929-1.574 2.0743-2.067 3.3978s-.736 2.8188-.736 4.4414.25 3.1179.736 4.4414c.115.299.25.5726.397.8462.134.2546.518.6872.806.7191.614.07.96.1081 1.325.1081 1.926 0 3.673-.4454 5.203-1.3171 1.536-.8717 2.95-2.1189 4.224-3.7033.294.2418 6.399 4.276 6.867 4.6323l9.138 8.1128c-2.124 2.7106-4.844 4.8486-8.095 6.3312s-7.034 2.2334-11.238 2.2334z" fill="#6d495e"/><path d="m132.052 1.71168c4.083 0 7.744.71265 10.88 2.12524 2.169.9799 11.244 7.19658 14.079 10.11718l-7.865 6.9865c-1.184-1.3426-2.49-2.4243-3.879-3.2196-.716-.4073-1.523-.7381-2.393-.9863-.128-.0382-.275-.0573-.422-.0573-.128-.0636-.269-.1081-.41-.1399-.838-.1655-1.626-.2482-2.4-.2482-1.619 0-3.117.2672-4.448.7954-1.344.5345-2.515 1.3235-3.481 2.3543-.954 1.0117-1.709 2.2525-2.246 3.6905-.525 1.419-.794 3.0097-.794 4.7341 0 1.7243.269 3.3151.794 4.7404.128.3372.281.649.441.9545l.115.229c.263.5218.775.8718 1.357.9354l.269.0318c.371.0445.749.0827 1.145.0827 2.074 0 3.968-.4836 5.632-1.4317 1.402-.7953 2.707-1.8834 3.891-3.2324 1.811 1.1263 5.747 3.7288 6.163 4.0278l8.557 7.5974c-1.959 2.3162-4.397 4.1487-7.264 5.4595-3.136 1.4317-6.797 2.157-10.88 2.157-3.328 0-6.451-.5281-9.273-1.5716-2.713-.999-12.396-7.3875-14.188-9.0546-2.061-1.9089-3.68-4.1995-4.813-6.8147-1.139-2.6089-1.715-5.5422-1.715-8.7173 0-3.1752.576-6.1085 1.715-8.7173 1.139-2.6089 2.759-4.9059 4.813-6.8148 2.061-1.90889 4.531-3.4042 7.347-4.44137 2.822-1.04353 5.945-1.57165 9.273-1.57165zm0-1.71164933c-3.533 0-6.854.56630633-9.875 1.67346933-3.027 1.11352-5.696 2.72972-7.923 4.7977-2.233 2.07433-3.987 4.5559-5.222 7.3874-1.235 2.8252-1.856 5.9876-1.856 9.3982 0 3.4105.627 6.5729 1.856 9.3981 1.229 2.8315 2.989 5.3131 5.222 7.3874 1.843 1.7117 11.737 8.291 14.765 9.4045 3.014 1.1136 6.335 1.6735 9.874 1.6735 4.333 0 8.23-.7763 11.597-2.3098 3.372-1.5398 6.201-3.7605 8.409-6.5857.275-.3499.23-.859-.102-1.158l-9.171-8.1446c-.173-.1528-7.194-4.8168-7.482-4.8168-.236.0191-.448.1336-.595.3181-1.197 1.5017-2.534 2.6725-3.974 3.4933-1.395.8017-3.008 1.2026-4.774 1.2026-.429 0-.826-.0636-1.229-.1018-.166-.3309-.352-.649-.486-1.0117-.455-1.2281-.685-2.6216-.685-4.1423 0-1.5208.23-2.9143.685-4.1423.454-1.2217 1.088-2.2653 1.888-3.1115.793-.8463 1.753-1.4953 2.86-1.9344 1.127-.4454 2.407-.6745 3.808-.6745.717 0 1.395.0828 2.061.2164.128.1018.281.1781.448.1909h.045c.07 0 .14-.0191.217-.0318.704.1972 1.383.4645 2.01.8208 1.44.8208 2.777 1.998 3.974 3.4933.147.1845.365.299.595.3181h.077c.198 0 .41-.0763.563-.2163l9.171-8.1447c.333-.299.384-.7953.109-1.1517-2.215-2.876-12.781-10.11076-15.264-11.23064-3.359-1.514396-7.257-2.2779553-11.59-2.2779553z" fill="#000"/><path d="m160.371 49.2877c-.384-.2481-6.477-4.3268-6.95-4.7404l18.956-42.71478h14.278c.409.24816 6.431 4.29502 6.975 4.81678l18.707 42.6384h-15.02c-.467-.2672-6.426-4.2823-6.982-4.8359l-.749-2.0807c-.128-.3308-.448-.5472-.807-.5472h-10.156c-.358 0-.672.2164-.806.5472l-2.675 6.923h-14.777z" fill="#6d495e"/><path d="m186.258 2.69163c1.216.70629 5.504 3.58872 6.598 4.42864l18.163 41.30853h-13.312c-1.222-.7063-5.453-3.5505-6.572-4.4286l-.749-1.9407c-.256-.6618-.896-1.0945-1.607-1.0945h-10.156c-.71 0-1.35.4391-1.606 1.0945l-2.464 6.3693h-13.772c-1.108-.6554-4.659-3.016-6.17-4.0723l18.323-41.66487h13.318m.396-1.71165h-14.284c-.339 0-.646.19725-.781.50904l-18.84 42.85478c-.116.2609-.09.5663.07.8081s7.27 4.9886 7.558 4.9886h14.777c.352 0 .672-.2164.8-.5473l2.675-6.9229h10.156l.896 2.3161c.128.3309 7.283 5.1541 7.642 5.1541h15.026c.288 0 .557-.1464.717-.3818.16-.2418.186-.5409.07-.8081l-18.847-42.85477c-.134-.31179-7.283-5.11585-7.622-5.11585z" fill="#000"/><path d="m220.458 49.2877c-.454-.2609-6.412-4.2632-6.976-4.8231l-18.085-42.63843h15.634c.461.27361 6.413 4.27593 6.976 4.82951l5.005 12.32512c.128.3181.441.5281.793.5345.346 0 .659-.2036.794-.5218l7.244-17.16096h14.278c.384.25451 6.477 4.32683 6.95 4.74042l-18.335 42.71474h-14.284z" fill="#6d495e"/><path d="m245.718 2.69164c1.107.65539 4.672 3.02242 6.176 4.07232l-17.721 41.66484h-13.318c-1.216-.7063-5.491-3.5823-6.592-4.4286l-17.567-41.30856h13.938c1.216.70629 5.479 3.576 6.586 4.42864l4.998 12.19152c.262.6426.89 1.0626 1.587 1.0626h.007c.691 0 1.318-.4136 1.587-1.0499l7.02-16.63286zm.416-1.711644h-14.284c-.346 0-.653.203614-.788.521764l-7.244 17.16104-5.145-12.54787c-.128-.31815-7.283-5.134934-7.635-5.134934h-15.641c-.288 0-.557.139984-.711.381784-.16.23543-.185.54085-.076.80173l18.226 42.85479c.134.3118 7.283 5.1222 7.628 5.1222h14.285c.345 0 .652-.2036.787-.5218l18.226-42.85474c.109-.26089.083-.56631-.077-.80174s-7.27-4.988587-7.551-4.988587z" fill="#000"/><path d="m257.634 49.2877c-.518-.2545-5.811-3.9005-6.841-4.8867v-42.57483h35.032c.518.26088 5.811 3.90688 6.835 4.89314v10.61349h-8.505c-.391 0-.736.2609-.832.6363s.077.7763.422.9608c2.656 1.438 5.606 3.137 6.394 3.7478v10.079h-2.688c-.256 0-.5.1081-.66.3054-.166.1973-.23.4518-.185.7063 0 .2991.173.5918.429.7508 2.694 1.629 5.676 3.5379 6.431 4.1805v10.588z" fill="#6d495e"/><path d="m285.467 2.69164c1.152.64266 5.062 3.34694 6.335 4.41592v9.36634h-7.647c-.787 0-1.472.5281-1.671 1.2917-.192.7572.154 1.5525.845 1.9216 2.246 1.2153 4.877 2.717 5.945 3.436v8.7809h-1.83c-.531 0-1.03.28-1.357.7-.3.3881-.409.9162-.313 1.4062.064.509.365.9735.813 1.2408 2.297 1.3871 4.979 3.0924 6.015 3.8687v9.3154h-34.609c-1.152-.6427-5.063-3.3469-6.336-4.4159v-41.32766zm.364-1.711644h-35.038c-.474 0-.858.381784-.858.852644v42.85476c0 .4709 7.226 5.4594 7.699 5.4594h35.839c.473 0 .857-.3817.857-.8526v-10.8998c0-.4709-6.841-4.6068-6.841-4.6068 0-.0636-.026-.1145-.032-.1782h2.694c.474 0 .858-.3818.858-.8526v-10.4099c0-.4708-6.842-4.1677-6.842-4.1677h8.512c.474 0 .858-.3818.858-.8527v-10.89342c0-.47086-7.226-5.459447-7.699-5.459447z" fill="#000"/><path d="m298.906 49.2877c-.518-.2545-5.811-3.9005-6.835-4.8867v-42.57483h20.748c4 0 7.513.66812 10.438 1.96617 2.342 1.04353 12.083 7.83916 13.644 10.20626 1.594 2.4116 2.4 5.3067 2.4 8.5964 0 3.2896-.806 6.1657-2.4 8.5391-1.203 1.7944-2.867 3.3088-4.928 4.4987-.204.1208-.352.3181-.409.5472-.051.2354 0 .4772.128.6681l8.531 12.4269h-15.507c-.377-.2481-6.47-4.3205-6.944-4.7341l-2.758-4.0914c-.16-.2418-.429-.3754-.71-.3754-.083 0-.167.0127-.25.0382-.358.1082-.608.4454-.608.8208v8.3483h-14.527zm15.385-31.7195c-.474 0-.858.3818-.858.8527v3.4169c0 .2736.128.5281.352.6872.148.1082.327.1654.512.1654.084 0 .173-.0127.256-.0382.743-.229 1.351-.5663 1.811-.9926.839-.7763 1.312-1.8452 1.415-3.1751.019-.2354-.064-.4709-.231-.6427-.16-.1718-.39-.2736-.627-.2736h-2.617z" fill="#6d495e"/><path d="m312.813 2.69163c3.884 0 7.276.63629 10.086 1.88344 2.175.96718 11.858 7.75013 13.273 9.89443 1.497 2.2716 2.259 5.0077 2.259 8.1256 0 3.1178-.762 5.8348-2.259 8.0619-1.133 1.6862-2.695 3.1115-4.64 4.2314-.416.2354-.711.6363-.813 1.1008-.109.4645-.013.9481.256 1.3426l7.609 11.0907h-13.465c-1.267-.7445-5.721-3.7224-6.675-4.4287l-2.726-4.015c-.326-.4773-.864-.7572-1.427-.7572-.167 0-.339.0254-.506.0763-.723.2227-1.216.8845-1.216 1.6353v7.4893h-13.305c-1.152-.6427-5.062-3.347-6.335-4.416v-41.31487zm1.478 20.86427c.173 0 .345-.0255.512-.0764.864-.2672 1.587-.6681 2.137-1.1835 1.005-.9354 1.568-2.1889 1.683-3.7414.032-.4709-.127-.9418-.454-1.2917-.326-.35-.781-.5472-1.261-.5472h-2.617c-.947 0-1.722.7635-1.722 1.7116v3.4169c0 .5409.263 1.0563.704 1.3808.301.2163.659.3309 1.018.3309zm-1.478-22.57592h-20.748c-.474 0-.858.38178-.858.85264v42.85478c0 .4708 7.225 5.4594 7.699 5.4594h14.534c.473 0 .857-.3818.857-.8526v-8.3483l2.861 4.2187c.16.2354 7.264 4.9822 7.552 4.9822h15.519c.32 0 .608-.1718.755-.4517.147-.28.128-.6173-.051-.8781l-8.531-12.4333c2.182-1.2535 3.93-2.857 5.209-4.7659 1.69-2.5134 2.548-5.5485 2.548-9.01s-.858-6.5157-2.541-9.0673c-1.683-2.5579-11.641-9.46174-14.009-10.518-3.034-1.34895-6.662-2.036157-10.79-2.036157zm1.478 20.86422v-3.4169h2.617c-.083 1.1008-.441 1.9662-1.145 2.6152-.378.35-.877.6108-1.479.8017z" fill="#000"/><path d="m362.385 50.2675c-3.597 0-7.117-.4135-10.464-1.2216s-6.143-1.8835-8.313-3.1815l-6.803-4.5814 4.646-10.5498c2.035 1.1771 4.346 2.1379 6.861 2.8506 2.515.7126 4.985 1.069 7.36 1.069.96 0 1.772-.0446 2.444-.1337.416-.0509.73-.3945.749-.8081s-.262-.7826-.672-.8717c-1.497-.3309-3.014-.7381-4.512-1.2408-1.696-.5663-3.27-1.3298-4.678-2.2652-.934-.6172-1.779-1.4126-2.509-2.3543-.096-.1273-.23-.2227-.377-.28-1.549-.5854-2.842-1.228-3.955-1.9725-1.415-.9354-2.56-2.1762-3.418-3.7033-.857-1.5207-1.292-3.4487-1.292-5.7203 0-2.6406.755-5.084 2.246-7.25382 1.491-2.16978 3.744-3.93233 6.707-5.23674 2.963-1.29805 6.7-1.959801 11.11-1.959801 2.905 0 5.804.305421 8.62.916271s5.389 1.55893 7.635 2.81881c.122.06999.57.38814 1.184.82082 1.568 1.10716 4.192 2.95879 5.664 3.77962l-4.378 10.46714c-2.112-1.0626-4.198-1.8644-6.182-2.3925s-3.942-.7954-5.817-.7954c-1.075 0-1.997.0764-2.739.2291-.403.0827-.685.4327-.685.8399s.288.7572.685.8399c1.638.3309 3.244.7572 4.761 1.2726 1.683.5727 3.245 1.3362 4.646 2.2652.525.3436 6.842 4.6069 6.842 4.6069 1.408.9353 2.56 2.1697 3.417 3.6714.858 1.5017 1.293 3.3978 1.293 5.6312 0 2.6025-.755 5.0205-2.246 7.1902-1.492 2.1762-3.744 3.9451-6.682 5.2622-2.937 1.3235-6.687 1.9916-11.142 1.9916z" fill="#6d495e"/><path d="m357.515 1.71165c2.841 0 5.683.30542 8.435.89718 2.732.59176 5.222 1.50803 7.359 2.70427.147.09544.576.3945 1.152.80174 1.363.96717 3.526 2.49429 5.062 3.42965l-3.731 8.94001c-1.888-.8845-3.744-1.5717-5.516-2.0489-2.055-.5472-4.09-.8272-6.042-.8272-1.132 0-2.112.0827-2.911.2418-.8.1655-1.376.8654-1.376 1.6798 0 .8145.576 1.5144 1.376 1.6735 1.606.3245 3.167.7445 4.652 1.2472 1.606.5472 3.104 1.2726 4.454 2.1697.5.3309 1.792 1.2026 3.143 2.1126 1.484 1.0053 3.039 2.0552 3.699 2.4879 1.299.859 2.355 1.998 3.142 3.3787.781 1.3744 1.177 3.1243 1.177 5.2113 0 2.4243-.704 4.6832-2.099 6.7066-1.401 2.0425-3.532 3.716-6.323 4.9632-2.828 1.2726-6.457 1.9152-10.79 1.9152-3.526 0-6.975-.4009-10.258-1.2026-3.264-.789-5.984-1.8325-8-3.0351l-6.278-4.2251 4.006-9.01c1.894 1.0054 3.981 1.8326 6.221 2.4625 2.592.7318 5.145 1.1072 7.596 1.1072.967 0 1.83-.0446 2.554-.14.832-.1082 1.459-.789 1.497-1.6226.039-.8272-.531-1.5653-1.344-1.7498-1.549-.3436-3.04-.7508-4.422-1.2153-1.626-.5473-3.129-1.2726-4.48-2.1634-.857-.5664-1.632-1.2981-2.304-2.1698-.192-.2545-.454-.4454-.755-.56-1.478-.5599-2.713-1.1708-3.782-1.8834-1.293-.859-2.349-2.0044-3.142-3.4106-.788-1.3935-1.184-3.1751-1.184-5.3004 0-2.4624.704-4.7404 2.099-6.77018 1.395-2.03616 3.532-3.6969 6.342-4.93132 2.854-1.25351 6.476-1.88344 10.764-1.88344m.007-1.69256c-4.531 0-8.384.68084-11.462 2.02979-3.111 1.36805-5.491 3.22604-7.072 5.53581-1.587 2.31613-2.4 4.9186-2.4 7.731 0 2.4243.474 4.4859 1.402 6.1403.928 1.6417 2.169 2.9906 3.692 3.996 1.255.8335 2.656 1.5016 4.128 2.0552.768.999 1.67 1.858 2.714 2.5516 1.472.9735 3.116 1.7689 4.883 2.3607 1.529.5154 3.072.929 4.601 1.2662-.64.0827-1.414.1273-2.336.1273-2.291 0-4.691-.35-7.123-1.0372-2.444-.6872-4.684-1.6226-6.668-2.7616-.135-.0763-.282-.1145-.429-.1145-.09 0-.179.0127-.262.0382-.231.0763-.423.2418-.519.4645l-4.678 10.5307c-.173.3945-.026.8527.339 1.069l6.841 4.6068c2.24 1.3426 5.12 2.4498 8.557 3.2833 3.417.8272 7.008 1.2472 10.668 1.2472 4.576 0 8.441-.6936 11.494-2.068 3.085-1.3808 5.453-3.2515 7.04-5.5612 1.587-2.3162 2.4-4.8996 2.4-7.6738 0-2.3861-.474-4.4223-1.408-6.0512-.922-1.6162-2.163-2.9524-3.686-3.9578-1.261-.8336-5.792-3.9132-6.842-4.6068-1.472-.9735-3.104-1.7689-4.851-2.3607-1.606-.5472-3.244-.9735-4.87-1.3044.678-.14 1.536-.21 2.566-.21 1.805 0 3.687.2609 5.6.7636 1.926.5154 3.955 1.298 6.029 2.3288.121.0573.256.0891.384.0891.102 0 .198-.0191.294-.0509.224-.0827.397-.2545.493-.4708l4.371-10.46716c.166-.40087.006-.85901-.371-1.06899-2.042-1.14533-6.464-4.39682-6.842-4.6068-2.323-1.29805-4.972-2.27795-7.871-2.90789-2.874-.623573-5.837-.93536-8.8-.93536z" fill="#000"/><path d="m388.31 49.2877c-.518-.2545-5.811-3.9005-6.835-4.8867v-42.57483h35.032c.519.26088 5.811 3.90688 6.835 4.89314v10.61349h-8.505c-.39 0-.736.2609-.832.6363s.077.7763.423.9608c2.655 1.438 5.606 3.137 6.393 3.7478v10.079h-2.694c-.263 0-.506.1145-.672.3118-.16.2036-.224.4645-.173.719 0 .299.173.5727.429.7254 2.694 1.6289 5.676 3.5378 6.431 4.1805v10.588h-35.832z" fill="#6d495e"/><path d="m416.143 2.69164c1.152.64266 5.062 3.34694 6.335 4.41592v9.36634h-7.647c-.787 0-1.472.5281-1.671 1.2917-.198.7635.154 1.5525.845 1.9216 2.246 1.2153 4.877 2.717 5.946 3.436v8.7809h-1.831c-.531 0-1.03.28-1.357.7-.3.3881-.409.9162-.313 1.4062.064.509.365.9735.813 1.2408 2.297 1.3871 4.979 3.0924 6.015 3.8687v9.3154h-34.609c-1.152-.6427-5.063-3.3469-6.336-4.4159v-41.32766zm.364-1.711644h-35.038c-.474 0-.858.381784-.858.852644v42.85476c0 .4709 7.226 5.4594 7.699 5.4594h35.832c.474 0 .858-.3817.858-.8526v-10.8998c0-.4709-6.841-4.6068-6.841-4.6068 0-.0636-.026-.1145-.032-.1782h2.7c.474 0 .858-.3818.858-.8526v-10.4099c0-.4708-6.841-4.1677-6.841-4.1677h8.511c.474 0 .858-.3818.858-.8527v-10.89342c0-.47086-7.226-5.459447-7.699-5.459447z" fill="#000"/><path d="m87.158 50.2675c-5.8878 0-11.4619-2.2588-15.705-6.3693-8.4028-3.7733-13.6698-11.8034-13.6698-20.6416 0-12.3505 10.1052-22.404061 22.5335-22.404061 5.8813 0 11.4619 2.258861 15.6985 6.369361 8.4028 3.7669 13.6698 11.8033 13.6698 20.6415 0 12.3506-10.1051 22.4041-22.527 22.4041z" fill="#6d495e"/><path d="m80.3166 1.71165c5.6573 0 11.0203 2.17614 15.1033 6.12756.1472.13998.3136.25452.4992.33724 7.8399 3.46785 12.9079 11.19245 12.9079 19.68705 0 11.8798-9.7208 21.5451-21.6691 21.5451-5.6574 0-11.0204-2.1761-15.1034-6.1275-.1472-.14-.3136-.2545-.4992-.3373-7.8396-3.4678-12.9082-11.1925-12.9082-19.6871 0-11.8797 9.7212-21.54505 21.6695-21.54505zm0-1.71165c-12.8955 0-23.3911 10.4353-23.3911 23.2567 0 9.4745 5.7342 17.6319 13.9323 21.2524 4.2174 4.0851 9.9643 6.6112 16.3001 6.6112 12.8951 0 23.3911-10.4353 23.3911-23.2568 0-9.4745-5.734-17.6318-13.9323-21.25235-4.2174-4.08504-9.9644-6.61115-16.3001-6.61115z" fill="#000"/><path d="m189.157 30.5615h-5.862l2.931-7.572z" fill="#000"/><path d="m189.157 31.4142h-5.856c-.281 0-.544-.14-.704-.369-.16-.2291-.192-.5218-.096-.7891l2.931-7.5783c.256-.6554 1.344-.6554 1.594 0l2.931 7.5783c.102.2609.064.5536-.096.7891-.16.2354-.422.369-.704.369zm-4.614-1.6989h3.366l-1.683-4.3587z" fill="#000"/><path d="m.857544 44.6809v-42.85473h11.948256l13.3179 21.60233c.1536.2546.4352.4073.736.4073s.5823-.1591.7359-.42l12.9211-21.58326h11.9419l.1216 42.84836h-13.2347l-.0831-16.4801c0-.3818-.2624-.719-.6336-.8209-.0768-.019-.1536-.0318-.224-.0318-.2944 0-.5824.1527-.7424.42l-7.8013 13.0569h-6.3997l-7.7757-12.4779c-.16-.2545-.4416-.4072-.7295-.4072-.0768 0-.16.0127-.2368.0318-.3712.1082-.6272.4391-.6272.8208v15.8884z" fill="#ee9abf"/><path d="m51.5947 2.68526.1216 41.13674h-11.5132l-.0832-15.6275c0-.7699-.5247-1.438-1.2671-1.6417-.1472-.0381-.3008-.0572-.4544-.0572-.5952 0-1.1647.3118-1.4783.8399l-7.5517 12.6369h-5.427l-7.5261-12.0706c-.32-.5154-.8767-.8081-1.4655-.8081-.1536 0-.3136.0191-.4736.0636-.7424.21-1.2479.8781-1.2479 1.648v15.0231h-11.50677v-41.13677h10.59797l13.0618 21.19517c.3136.509.8704.8144 1.4656.8144h.0128c.6016 0 1.1583-.3181 1.4655-.8335l12.6779-21.17607h10.5852m.8639-1.71165h-11.9419c-.3008 0-.5824.15908-.7359.4136l-12.9275 21.59602-13.3179-21.60239c-.16-.25452-.4351-.40723-.7295-.40723h-11.941936c-.47358 0-.857564.38178-.857564.85264v42.85478c0 .4708.383984.8526.857564.8526h13.234636c.4736 0 .8576-.3818.8576-.8526v-15.8884l7.7757 12.4778c.1535.2482.4287.4009.7295.4009h6.4062c.3007 0 .5823-.1591.7359-.4136l7.8013-13.0569.0896 16.4865c0 .4709.384.8463.8576.8463h13.241c.224 0 .4416-.0891.608-.2481.16-.1591.2496-.3754.2496-.6045l-.1216-42.85478c0-.47086-.384-.846277-.8576-.846277z" fill="#000"/><path d="m80.3167 45.6607c-12.4219 0-22.5335-10.0471-22.5335-22.4041 0-12.3569 10.1116-22.404061 22.5335-22.404061s22.5273 10.047161 22.5273 22.404061c0 12.357-10.1054 22.4041-22.5273 22.4041z" fill="#ee9abf"/><path d="m80.3166 1.71165c11.9483 0 21.6694 9.66535 21.6694 21.54505s-9.7211 21.5451-21.6694 21.5451-21.6695-9.6654-21.6695-21.5451 9.7212-21.54505 21.6695-21.54505zm0-1.71165c-12.8955 0-23.3911 10.4353-23.3911 23.2567 0 12.8215 10.4956 23.2568 23.3911 23.2568 12.8954 0 23.3914-10.4353 23.3914-23.2568 0-12.8214-10.496-23.2567-23.3914-23.2567z" fill="#000"/><path d="m132.052 45.661c-3.437 0-6.656-.5473-9.574-1.6226-2.925-1.0753-5.491-2.6343-7.635-4.6195-2.144-1.9917-3.833-4.3778-5.017-7.1011-1.184-2.7107-1.786-5.7649-1.786-9.0546 0-3.2896.602-6.3439 1.786-9.0609 1.184-2.7233 2.873-5.10946 5.017-7.10107 2.144-1.99162 4.71-3.54419 7.635-4.61954 2.918-1.07534 6.137-1.622559 9.574-1.622559 4.211 0 7.987.744469 11.238 2.201599 3.245 1.46348 5.971 3.60781 8.096 6.36935l-9.171 8.13822c-1.261-1.5843-2.682-2.8315-4.211-3.7032-1.53-.8781-3.283-1.3172-5.203-1.3172-1.51 0-2.899.2482-4.128.7382-1.222.4835-2.291 1.2089-3.168 2.1443-.877.929-1.574 2.0743-2.067 3.3978s-.736 2.8188-.736 4.4414.25 3.1179.736 4.4414c.493 1.3298 1.19 2.4752 2.067 3.3978.877.9354 1.946 1.6544 3.174 2.1443 1.229.49 2.618.7381 4.128.7381 1.927 0 3.674-.4454 5.203-1.3171 1.536-.8717 2.957-2.1189 4.218-3.7033l9.164 8.1447c-2.125 2.7106-4.845 4.8486-8.096 6.3311-3.251 1.4826-7.033 2.2334-11.238 2.2334z" fill="#ee9abf"/><path d="m132.052 1.71168c4.083 0 7.744.71265 10.88 2.12524 2.867 1.29168 5.311 3.13695 7.263 5.48489l-7.897 7.00569c-1.184-1.3426-2.489-2.4243-3.878-3.2133-1.664-.9481-3.558-1.4317-5.632-1.4317-1.619 0-3.117.2672-4.448.7954-1.344.5345-2.515 1.3235-3.481 2.3543-.954 1.0117-1.709 2.2525-2.247 3.6905-.524 1.419-.793 3.0097-.793 4.7341 0 1.7243.269 3.3151.793 4.7404.538 1.4317 1.293 2.6725 2.24 3.6842.967 1.0308 2.138 1.8198 3.482 2.3543 1.331.5281 2.828.7954 4.448.7954 2.073 0 3.967-.4836 5.631-1.4317 1.396-.7954 2.695-1.8771 3.879-3.2133l7.89 7.0056c-1.958 2.3162-4.396 4.1487-7.263 5.4595-3.136 1.4316-6.797 2.157-10.88 2.157-3.328 0-6.451-.5281-9.273-1.5716-2.816-1.0372-5.286-2.5325-7.347-4.4478-2.061-1.9089-3.68-4.1995-4.812-6.8147-1.14-2.6089-1.716-5.5422-1.716-8.7173 0-3.1752.576-6.1085 1.716-8.7173 1.139-2.6089 2.758-4.9059 4.812-6.8148 2.061-1.90889 4.531-3.4042 7.347-4.44137 2.822-1.04353 5.945-1.57165 9.273-1.57165m.013-1.71164933c-3.533 0-6.854.56630633-9.875 1.67346933-3.027 1.11352-5.696 2.72972-7.923 4.79769-2.233 2.07434-3.987 4.55591-5.222 7.38741-1.235 2.8252-1.856 5.9876-1.856 9.3982 0 3.4105.627 6.5729 1.856 9.3981 1.229 2.8315 2.989 5.3131 5.222 7.3874 2.227 2.068 4.896 3.6842 7.923 4.7977 3.015 1.1136 6.336 1.6735 9.875 1.6735 4.333 0 8.23-.7763 11.596-2.3098 3.373-1.5398 6.202-3.7605 8.41-6.5857.275-.3499.23-.859-.103-1.158l-9.171-8.1447c-.153-.1336-.339-.2163-.55-.2163-.032 0-.058 0-.09 0-.236.0191-.448.1336-.595.3182-1.197 1.5016-2.534 2.6724-3.974 3.4932-1.395.8018-3.008 1.2026-4.774 1.2026-1.402 0-2.682-.229-3.808-.6744-1.107-.4391-2.074-1.0881-2.867-1.9344-.8-.8463-1.434-1.8898-1.888-3.1115-.454-1.228-.685-2.6215-.685-4.1423 0-1.5207.231-2.9142.685-4.1423.454-1.2217 1.088-2.2652 1.888-3.1115.793-.8463 1.753-1.4953 2.861-1.9344 1.126-.4454 2.406-.6744 3.807-.6744 1.767 0 3.373.4072 4.775 1.2026 1.44.8208 2.777 1.998 3.974 3.4933.147.1845.365.299.595.3181h.077c.198 0 .409-.0764.563-.2163l9.171-8.1447c.333-.29903.384-.79534.109-1.15167-2.215-2.87607-5.043-5.10312-8.422-6.62387-3.36-1.514396-7.258-2.2779553-11.59-2.2779553z" fill="#000"/><path d="m153.523 44.6809 18.854-42.84838h14.278l18.84 42.84838h-15.02l-2.668-6.9229c-.128-.3309-.448-.5472-.807-.5472h-15.212c-.358 0-.672.2163-.806.5472l-2.675 6.9229h-14.777zm25.862-27.1572c-.359 0-.672.2163-.807.5472l-2.931 7.5783c-.102.2609-.064.5599.096.789s.422.3691.71.3691h5.863c.281 0 .55-.14.71-.3691.16-.2354.198-.5281.096-.789l-2.931-7.5783c-.128-.3309-.448-.5472-.806-.5472z" fill="#ee9abf"/><path d="m186.085 2.69163 18.086 41.13677h-13.107l-2.464-6.3694c-.256-.6617-.896-1.0944-1.606-1.0944h-15.219c-.71 0-1.35.439-1.606 1.0944l-2.464 6.3694h-12.863l18.092-41.13677zm-9.625 24.98107h5.862c.57 0 1.094-.2799 1.421-.7444.32-.4645.39-1.0563.185-1.5844l-2.931-7.572c-.256-.6617-.896-1.0944-1.606-1.0944s-1.35.439-1.606 1.0944l-2.931 7.572c-.205.5281-.135 1.1199.185 1.5844s.851.7444 1.421.7444zm10.195-26.69272h-14.285c-.339 0-.646.19725-.78.50904l-18.841 42.85478c-.115.2609-.09.5663.07.8081s.429.3818.717.3818h14.777c.352 0 .672-.2164.8-.5473l2.675-6.9229h15.219l2.675 6.9229c.128.3309.441.5473.8.5473h15.026c.288 0 .557-.1464.717-.3818.16-.2418.186-.5409.07-.8081l-18.86-42.85478c-.134-.31179-.441-.50904-.78-.50904zm-10.195 24.98112 2.931-7.572 2.931 7.572z" fill="#000"/><path d="m213.617 44.6809-18.221-42.85473h15.635l9.472 23.11043c.128.3181.441.5281.793.5345.346 0 .659-.2037.794-.5218l9.759-23.11676h14.278l-18.226 42.84836z" fill="#ee9abf"/><path d="m244.828 2.69164-17.497 41.13676h-13.138l-17.497-41.13676h13.753l9.254 22.56956c.262.6426.889 1.0626 1.587 1.0626h.006c.691 0 1.319-.4136 1.587-1.0499l9.536-22.58862h12.403m1.305-1.711647h-14.284c-.346 0-.653.203617-.787.521767l-9.753 23.1168-9.478-23.10408c-.128-.31815-.442-.528124-.794-.528124h-15.641c-.288 0-.557.139984-.71.381784-.154.24179-.186.54085-.077.80173l18.226 42.85479c.135.3118.442.5217.788.5217h14.284c.345 0 .653-.2036.787-.5217l18.233-42.85479c.109-.26088.083-.5663-.077-.80173-.16-.23544-.429-.381784-.71-.381784z" fill="#000"/><path d="m250.793 44.6809v-42.85473h35.039v10.89983h-19.897c-.474 0-.858.3818-.858.8526v3.3215c0 .4709.384.8526.858.8526h17.369v10.4035h-17.369c-.474 0-.858.3818-.858.8527v3.9323c0 .4709.384.8526.858.8526h20.696v10.8871z" fill="#ee9abf"/><path d="m284.967 2.69164v9.17546h-19.026c-.947 0-1.722.7635-1.722 1.7116v3.3215c0 .9417.768 1.7116 1.722 1.7116h16.505v8.6855h-16.505c-.947 0-1.722.7636-1.722 1.7117v3.9323c0 .9417.768 1.7117 1.722 1.7117h19.833v9.1754h-34.111v-41.13676zm.864-1.711644h-35.038c-.474 0-.858.381784-.858.852644v42.85476c0 .4709.384.8526.858.8526h35.838c.474 0 .858-.3817.858-.8526v-10.8998c0-.4709-.384-.8527-.858-.8527h-20.696v-3.9323h17.369c.473 0 .857-.3818.857-.8526v-10.4035c0-.4709-.384-.8527-.857-.8527h-17.369v-3.3214h19.89c.474 0 .858-.3818.858-.8527v-10.89343c0-.47086-.384-.852637-.858-.852637z" fill="#000"/><path d="m292.065 44.6809v-42.85473h20.747c4 0 7.514.66175 10.438 1.9598 2.919 1.29805 5.21 3.1815 6.797 5.59944 1.593 2.41159 2.4 5.30669 2.4 8.59639s-.807 6.1658-2.4 8.5391c-1.203 1.7944-2.861 3.3088-4.928 4.4987-.205.1209-.358.3181-.409.5472-.052.2354 0 .4772.128.6681l8.53 12.4333h-15.506l-7.053-10.3971c-.16-.2355-.428-.3754-.716-.3754h-2.65c-.474 0-.857.3817-.857.8526v9.9263h-14.528zm15.384-31.7195c-.473 0-.857.3818-.857.8526v8.3419c0 .4709.384.8527.857.8527h4.442c2.003 0 3.501-.4518 4.467-1.349.96-.8908 1.446-2.1252 1.446-3.6778s-.486-2.787-1.446-3.6778c-.96-.8972-2.464-1.349-4.467-1.349h-4.442z" fill="#ee9abf"/><path d="m312.813 2.69163c3.884 0 7.276.63629 10.086 1.88344 2.764 1.23442 4.927 3.0097 6.431 5.28765 1.498 2.27158 2.259 5.00768 2.259 8.12558 0 3.1178-.761 5.8348-2.259 8.0619-1.133 1.6862-2.694 3.1115-4.64 4.2314-.416.2354-.71.6363-.812 1.1008-.109.4645-.013.948.256 1.3426l7.609 11.0907h-13.42l-6.797-10.0218c-.32-.4708-.857-.7572-1.427-.7572h-2.649c-.948 0-1.722.7636-1.722 1.7117v9.0673h-12.799v-41.12407zm-5.363 21.18237h4.441c2.227 0 3.929-.5345 5.056-1.578 1.145-1.0626 1.721-2.507 1.721-4.3014 0-1.7943-.576-3.2387-1.721-4.3014-1.127-1.0499-2.829-1.578-5.056-1.578h-4.441c-.948 0-1.722.7636-1.722 1.7117v8.3418c0 .9418.768 1.7117 1.722 1.7117m5.363-22.90042h-20.748c-.474 0-.858.38178-.858.85264v42.85478c0 .4708.384.8526.858.8526h14.533c.474 0 .858-.3818.858-.8526v-9.9263h2.649l7.053 10.4035c.16.2354.422.3754.71.3754h15.52c.32 0 .608-.1718.755-.4518.147-.2799.128-.6172-.051-.878l-8.531-12.4333c2.182-1.2535 3.929-2.857 5.209-4.7659 1.69-2.5134 2.547-5.5485 2.547-9.01s-.857-6.5157-2.54-9.06728c-1.684-2.55792-4.096-4.54318-7.168-5.91122-3.034-1.34895-6.662-2.036157-10.79-2.036157zm-5.363 21.18242v-8.3419h4.441c1.773 0 3.085.3754 3.878 1.1199.794.7381 1.178 1.7371 1.178 3.0542 0 1.3172-.384 2.3162-1.178 3.0543-.793.7444-2.099 1.1198-3.878 1.1198h-4.441z" fill="#000"/><path d="m355.544 45.661c-3.597 0-7.117-.4136-10.464-1.2217-3.353-.8145-6.15-1.8835-8.313-3.1815l4.684-10.5244c2.036 1.1771 4.346 2.1379 6.861 2.8506s4.985 1.069 7.36 1.069c1.388 0 2.496-.0955 3.296-.28.799-.1845 1.388-.4518 1.753-.8017.365-.3436.557-.7699.557-1.2535 0-.7763-.435-1.3935-1.299-1.8389-.864-.4518-2.016-.8336-3.418-1.1326-1.414-.3055-2.969-.63-4.646-.9799-1.683-.3436-3.392-.8081-5.081-1.3745-1.696-.5663-3.271-1.3298-4.679-2.2652-1.407-.9353-2.559-2.1825-3.411-3.7032-.857-1.5208-1.292-3.4488-1.292-5.7204 0-2.6406.755-5.0776 2.246-7.25379 1.491-2.16978 3.744-3.93233 6.707-5.23038s6.7-1.959799 11.116-1.959799c2.899 0 5.798.305419 8.621.916269 2.816.61085 5.388 1.55894 7.635 2.81881l-4.372 10.46709c-2.111-1.0562-4.191-1.8643-6.182-2.3925-1.99-.5281-3.948-.7953-5.823-.7953-1.389 0-2.509.1209-3.322.369-.813.2482-1.408.5727-1.76.9863-.345.4072-.518.8654-.518 1.3489 0 .7445.422 1.3172 1.299 1.7499.858.4263 2.01.789 3.417 1.0689 1.415.2864 2.976.5918 4.679.9163 1.696.3245 3.404.7827 5.075 1.349 1.683.5726 3.244 1.3362 4.646 2.2652 1.408.9354 2.56 2.1698 3.411 3.6714.857 1.5017 1.293 3.3979 1.293 5.6313 0 2.5961-.756 5.0204-2.247 7.1902-1.497 2.1761-3.744 3.945-6.681 5.2622-2.937 1.3235-6.688 1.9916-11.142 1.9916z" fill="#ee9abf"/><path d="m357.515 1.71166c2.841 0 5.683.30542 8.435.89718 2.451.52813 4.71 1.3235 6.719 2.36067l-3.718 8.90819c-1.888-.8845-3.744-1.5717-5.517-2.0489-2.054-.5472-4.089-.8272-6.041-.8272-1.497 0-2.669.1337-3.571.4009-.992.2927-1.702.6999-2.176 1.2535-.48.5663-.723 1.2026-.723 1.8962 0 1.069.614 1.9407 1.773 2.5134.928.4645 2.15.8462 3.628 1.1453 1.421.2863 2.983.5918 4.691.9226 1.651.3182 3.322.7636 4.96 1.3172 1.606.5472 3.104 1.2726 4.448 2.1698 1.299.859 2.355 1.9979 3.142 3.3787.781 1.3744 1.178 3.1242 1.178 5.2113 0 2.4243-.704 4.6832-2.099 6.7066-1.402 2.0425-3.533 3.716-6.323 4.9631-2.829 1.2726-6.458 1.9153-10.79 1.9153-3.527 0-6.976-.4009-10.259-1.2026-2.938-.7127-5.427-1.6226-7.417-2.7043l3.98-8.9591c1.895 1.0054 3.981 1.8326 6.221 2.4625 2.592.7317 5.145 1.1071 7.596 1.1071 1.472 0 2.611-.0954 3.488-.299.967-.2227 1.671-.5536 2.15-1.0054.544-.509.832-1.158.832-1.8834 0-.7699-.307-1.8389-1.759-2.6025-.928-.4836-2.151-.8908-3.636-1.2089-1.42-.3055-2.969-.6363-4.659-.9799-1.644-.3373-3.321-.7891-4.979-1.349-1.625-.5472-3.129-1.2726-4.479-2.1634-1.293-.859-2.349-2.0044-3.143-3.4106-.787-1.3935-1.184-3.1751-1.184-5.3004 0-2.4624.704-4.7404 2.1-6.77017 1.395-2.03616 3.532-3.6969 6.342-4.93132 2.854-1.25351 6.476-1.88345 10.764-1.88345m.026-1.71164466c-4.531 0-8.384.68084066-11.462 2.02979466-3.111 1.36804-5.491 3.22604-7.072 5.5358-1.587 2.31613-2.4 4.91859-2.4 7.73099 0 2.4244.474 4.486 1.402 6.1403.928 1.6417 2.169 2.9906 3.692 3.996 1.472.9735 3.117 1.7689 4.883 2.3607 1.722.579 3.469 1.0499 5.184 1.4062 1.677.35 3.226.6745 4.64.9799 1.337.2863 2.413.6426 3.2 1.0562.742.3882.832.7827.832 1.0818 0 .2545-.09.4517-.288.6363-.173.1654-.551.4008-1.357.5853-.736.1655-1.779.2546-3.104.2546-2.291 0-4.691-.35-7.123-1.0372-2.444-.6872-4.684-1.6226-6.668-2.7615-.135-.0764-.282-.1146-.429-.1146-.09 0-.179.0128-.262.0382-.231.0764-.423.2418-.519.4645l-4.678 10.5308c-.173.3945-.026.8526.339 1.0689 2.24 1.3426 5.12 2.4498 8.557 3.2833 3.417.8272 7.007 1.2472 10.668 1.2472 4.576 0 8.441-.6936 11.494-2.068 3.085-1.3807 5.452-3.2515 7.04-5.5612 1.587-2.3162 2.399-4.8995 2.399-7.6738 0-2.3861-.473-4.4223-1.407-6.0512-.922-1.6162-2.164-2.9524-3.687-3.9578-1.472-.9735-3.104-1.7689-4.851-2.3607-1.715-.579-3.462-1.0435-5.19-1.3807-1.702-.3245-3.257-.63-4.672-.9163-1.331-.2672-2.412-.6045-3.206-.999s-.819-.8145-.819-.9863c0-.2863.102-.5408.313-.7953.167-.1909.538-.4773 1.357-.719.736-.2228 1.767-.3309 3.078-.3309 1.805 0 3.687.2609 5.6.7635 1.927.5154 3.955 1.2981 6.029 2.3289.121.0573.256.0891.384.0891.102 0 .198-.0191.294-.0509.224-.0828.397-.2546.493-.4709l4.371-10.46712c.166-.40087.006-.859-.371-1.06898-2.323-1.29805-4.973-2.27795-7.872-2.907888-2.873-.623573-5.836-.93535966-8.8-.93535966z" fill="#000"/><path d="m381.469 44.6809v-42.85473h35.039v10.89983h-19.897c-.474 0-.858.3818-.858.8526v3.3215c0 .4709.384.8526.858.8526h17.375v10.4035h-17.375c-.474 0-.858.3818-.858.8527v3.9323c0 .4709.384.8526.858.8526h20.697v10.8871h-35.833z" fill="#ee9abf"/><path d="m415.643 2.69164v9.17546h-19.032c-.947 0-1.722.7635-1.722 1.7116v3.3215c0 .9417.768 1.7116 1.722 1.7116h16.505v8.6855h-16.505c-.947 0-1.722.7636-1.722 1.7117v3.9323c0 .9417.768 1.7117 1.722 1.7117h19.832v9.1754h-34.104v-41.13676zm.864-1.711644h-35.038c-.474 0-.858.381784-.858.852644v42.85476c0 .4709.384.8526.858.8526h35.832c.474 0 .858-.3817.858-.8526v-10.8998c0-.4709-.384-.8527-.858-.8527h-20.697v-3.9323h17.369c.474 0 .858-.3818.858-.8526v-10.4035c0-.4709-.384-.8527-.858-.8527h-17.369v-3.3214h19.897c.474 0 .858-.3818.858-.8527v-10.89343c0-.47086-.384-.852637-.858-.852637z" fill="#000"/><path d="m81.8652 29.3844c-.1536-.5282-.256-.9799-.4223-1.4126-.5568-1.4444-1.1392-2.8825-1.7152-4.3205-.1088-.2736-.2368-.5536-.3072-.8399-.0768-.2991-.0448-.5918.2496-.789.256-.1718.6528 0 .8704.3881.0896.1527.1664.3182.2304.4836.7423 1.8835 1.4911 3.7669 2.2143 5.6567.128.3309.224.6872.256 1.0372.0384.3818-.1408.7254-.5184.8463-.5056.1654-1.0368.3054-1.5679.3563-.7168.0636-1.44.0445-2.1567.0318-.6016-.0127-.928-.2291-.9664-.5854-.0448-.3945.3456-.6681 1.056-.6936.5375-.0191 1.0815 0 1.6191-.0191.3456-.019.6912-.089 1.1583-.1527z" fill="#000"/><path d="m79.9902 31.0005c-.3072 0-.608 0-.9088-.0127h-.0832c-.9407-.0191-1.1007-.5154-1.1263-.7254-.0192-.1845.032-.3563.1472-.49.1984-.229.5631-.3563 1.0559-.3817.2624-.0128.5248-.0064.7936-.0064.2752 0 .5504 0 .8255-.0127.224-.0128.4544-.0446.7168-.0828.0768-.0127.16-.0254.2496-.0381-.032-.1082-.0576-.2164-.0896-.3182-.0896-.3181-.1728-.6172-.2816-.9035-.384-.9863-.7743-1.9662-1.1647-2.9461l-.6272-1.5589c-.0896-.2164-.1792-.4391-.2368-.6681-.1344-.5282.096-.8145.3136-.9609.1344-.089.3008-.1145.4672-.0763.2432.0573.48.2545.6271.5154.096.1654.1728.3372.2432.5027l.2944.7381c.6464 1.6353 1.2928 3.2769 1.9263 4.9186.1408.369.2304.7317.2688 1.0753.0512.4772-.1984.8781-.6271 1.0181-.4416.14-1.0176.3118-1.6.3627-.3904.0382-.7871.0445-1.1839.0445zm-.352-1.2981c-.1792 0-.3584 0-.5376.0064-.3904.0127-.6976.1145-.8256.2673-.064.0699-.0831.1527-.0767.2481.0447.3691.5247.4391.8127.4391h.0832c.6784.0127 1.376.0318 2.0543-.0319.544-.0509 1.0816-.2036 1.5296-.3499.288-.0955.4415-.3564.4095-.6809-.032-.3181-.1151-.6554-.2495-.9926-.6336-1.6416-1.28-3.2769-1.9264-4.9186l-.2943-.7381c-.0576-.1527-.1344-.3054-.224-.4645-.1024-.1845-.2688-.3245-.4224-.3627-.0576-.0127-.1408-.0191-.2176.0318-.1984.1273-.256.3309-.1856.6172.0512.21.1344.4136.224.6236l.6272 1.5653c.3903.9799.7871 1.9662 1.1647 2.9461.1152.299.1984.6045.288.929.0448.159.0896.3181.1408.4899l.0512.1782-.1856.0254c-.1536.0191-.2944.0446-.4224.0637-.2752.0445-.512.0763-.7488.0891-.2815.0127-.5567.0127-.8447.0127-.0768 0-.16 0-.2368 0z" fill="#000"/><path d="m79.6446 29.9697c-.1792 0-.3584 0-.544.0064-.3712.0127-.576.1018-.6336.1718.0064.229.4544.2481.5376.2481.7616.0127 1.4528.0255 2.1055-.0318.5248-.0445 1.0624-.2036 1.472-.3372.224-.07.2368-.28.224-.4009-.0256-.2927-.1088-.6109-.2304-.9226-.5952-1.5399-1.1968-3.0734-1.8048-4.6132l-.4095-1.0435c-.0576-.1464-.128-.2927-.2048-.4264-.096-.1845-.2496-.229-.2688-.2354-.0384.0318-.1216.0827-.0576.3245.0512.1973.128.3882.2112.5791l.6272 1.5716c.3967.9863.7871 1.9662 1.1711 2.9524.1152.2991.2048.6109.2944.9418.0448.159.0896.3245.1408.4963l.1408.4772-.928.1273c-.2816.0445-.5248.0827-.768.089-.2879.0128-.5759.0064-.8575.0128h-.2176z" fill="#000"/><path d="m79.9711 30.5741c-.3136 0-.6336 0-.9664-.0127-.4352-.0064-.6848-.1527-.6976-.4009v-.0636l.0384-.0445c.1088-.1337.384-.2164.7488-.2355.1856-.0063.3648-.0063.5504-.0063h.4096c.2175 0 .4415 0 .6591-.0127.2368-.0128.4736-.0446.7488-.0891l.7424-.1018-.0896-.2991c-.0512-.1782-.096-.3436-.1408-.5027-.096-.3372-.1792-.6426-.288-.929-.384-.9862-.7744-1.9661-1.1712-2.9524l-.6271-1.5717c-.0832-.2036-.1664-.3945-.2176-.5981-.0768-.3118.032-.4263.1216-.4899l.0896-.0637.096.0637c.0448.0191.2112.0891.3199.2927.0896.159.16.3054.2176.4454l.4096 1.0435c.608 1.5335 1.2096 3.0733 1.8047 4.6132.128.3309.2112.6617.2432.9672.032.2799-.096.4899-.3327.5663-.384.1209-.9536.2927-1.5104.3436-.3776.0318-.7616.0445-1.1583.0445zm-1.2608-.3754c.064.0255.1664.0446.3008.0446.736.0127 1.4335.0254 2.0863-.0319.5248-.0445 1.0688-.2099 1.44-.3308l-1.0304.14c-.2816.0445-.5312.0827-.7808.0954-.224.0064-.448.0127-.6719.0127h-.4096c-.1792 0-.3584 0-.5376.0128-.1856.0063-.3136.0318-.3968.0572zm1.2672-7.5529s0 .0191.0064.0319c.0448.1781.1216.3563.1984.5472l.6335 1.5907c.3968.9863.7872 1.9662 1.1712 2.9525.1152.299.2048.6108.2944.9417.0512.1781.096.3436.1472.5154l.1855.6236c.0256-.0319.0512-.0891.0384-.1846-.0256-.2799-.1023-.5854-.2175-.8844-.5952-1.5399-1.1968-3.0734-1.8048-4.6132l-.4096-1.0435c-.0511-.1273-.1151-.2609-.1983-.4073-.0128-.0254-.0256-.0445-.0384-.0636z" fill="#000"/><path d="m90.9467 24.0774c3.2624 0 5.907-2.6295 5.907-5.8731 0-3.2435-2.6446-5.873-5.907-5.873-3.2623 0-5.9069 2.6295-5.9069 5.873 0 3.2436 2.6446 5.8731 5.9069 5.8731z" fill="#fff"/><path d="m90.9467 24.9301c-3.7311 0-6.7646-3.016-6.7646-6.7257 0-3.7096 3.0335-6.7256 6.7646-6.7256 3.731 0 6.7645 3.016 6.7645 6.7256 0 3.7097-3.0335 6.7257-6.7645 6.7257zm0-11.7461c-2.7839 0-5.0558 2.2525-5.0558 5.0268s2.2655 5.0268 5.0558 5.0268c2.7902 0 5.0557-2.2525 5.0557-5.0268s-2.2655-5.0268-5.0557-5.0268z" fill="#000"/><path d="m90.9915 20.6605c1.3643 0 2.4703-1.0996 2.4703-2.4561s-1.106-2.4561-2.4703-2.4561-2.4703 1.0996-2.4703 2.4561 1.106 2.4561 2.4703 2.4561z" fill="#000"/><path d="m69.6867 24.0774c3.2624 0 5.907-2.6295 5.907-5.8731 0-3.2435-2.6446-5.873-5.907-5.873-3.2623 0-5.9069 2.6295-5.9069 5.873 0 3.2436 2.6446 5.8731 5.9069 5.8731z" fill="#fff"/><path d="m69.6802 24.9301c-3.7246 0-6.7581-3.016-6.7581-6.7257 0-3.7096 3.0335-6.7256 6.7581-6.7256 3.7247 0 6.7646 3.016 6.7646 6.7256 0 3.7097-3.0335 6.7257-6.7646 6.7257zm0-11.7461c-2.7838 0-5.0494 2.2525-5.0494 5.0268s2.2656 5.0268 5.0494 5.0268c2.7839 0 5.0558-2.2525 5.0558-5.0268s-2.2655-5.0268-5.0558-5.0268z" fill="#000"/><path d="m69.7315 20.6605c1.3643 0 2.4703-1.0996 2.4703-2.4561s-1.106-2.4561-2.4703-2.4561-2.4703 1.0996-2.4703 2.4561 1.106 2.4561 2.4703 2.4561z" fill="#000"/><path d="m80.3615 24.0774c3.2624 0 5.907-2.6295 5.907-5.8731 0-3.2435-2.6446-5.873-5.907-5.873-3.2623 0-5.9069 2.6295-5.9069 5.873 0 3.2436 2.6446 5.8731 5.9069 5.8731z" fill="#fff"/><g fill="#000"><path d="m80.3614 24.9301c-3.731 0-6.7645-3.016-6.7645-6.7257 0-3.7096 3.0335-6.7256 6.7645-6.7256 3.7311 0 6.7646 3.016 6.7646 6.7256 0 3.7097-3.0335 6.7257-6.7646 6.7257zm0-11.7461c-2.7838 0-5.0557 2.2525-5.0557 5.0268s2.2655 5.0268 5.0557 5.0268c2.7903 0 5.0558-2.2525 5.0558-5.0268s-2.2655-5.0268-5.0558-5.0268z"/><path d="m80.4063 20.6605c1.3643 0 2.4703-1.0996 2.4703-2.4561s-1.106-2.4561-2.4703-2.4561-2.4703 1.0996-2.4703 2.4561 1.106 2.4561 2.4703 2.4561z"/><path d="m80.7518 39.2851c-3.4175 0-5.5294-1.5399-6.6941-2.8379-1.2672-1.3999-1.7216-2.8061-1.7408-2.8634-.1344-.4263.1024-.8844.5312-1.0181.4288-.1336.8896.1018 1.024.5282.064.1909 1.5551 4.5686 6.8797 4.5686 5.235 0 6.0477-4.2759 6.0797-4.4541.0768-.439.4992-.7381.9408-.6617.4416.0763.7424.4899.672.9353-.0128.0573-.256 1.4953-1.3312 2.9206-.9919 1.3172-2.9055 2.8888-6.3549 2.8888z"/><path d="m80.7519 39.4442c-3.4751 0-5.6254-1.5716-6.8157-2.8888-1.2544-1.3871-1.728-2.7679-1.7728-2.9206-.16-.509.1216-1.0562.64-1.2217.512-.159 1.0624.1209 1.2288.63.0575.1845 1.5103 4.4541 6.7261 4.4541s5.8877-4.1487 5.9197-4.3205c.0896-.5281.5952-.8845 1.1264-.7954s.8895.5918.7999 1.1135c-.0128.0637-.2623 1.5272-1.3631 2.9907-1.0175 1.3489-2.9695 2.9524-6.4829 2.9524zm-7.6605-6.7575c-.064 0-.1344.0128-.1984.0319-.3456.1081-.5376.4772-.4288.8208.0192.0573.4736 1.4444 1.7087 2.8061 1.1456 1.2662 3.2191 2.7806 6.579 2.7806 3.3598 0 5.2542-1.5398 6.2269-2.8252 1.056-1.3998 1.2928-2.7933 1.3056-2.8506.0576-.3563-.1856-.6872-.5376-.7508-.3584-.0573-.6976.1781-.7616.5345-.032.1845-.8767 4.5877-6.2333 4.5877s-6.9693-4.4859-7.0333-4.6768c-.0896-.28-.3456-.4582-.6272-.4582z"/><path d="m73.0915 32.9541c-.0384 0-.0768 0-.1152.0191-.2048.0636-.32.28-.256.4899 0 .0128.4416 1.3744 1.6512 2.7107 1.1135 1.228 3.123 2.6979 6.3805 2.6979s5.075-1.4826 6.0157-2.7234c.9664-1.2853 1.2288-2.5897 1.2544-2.7361.032-.2099-.1088-.4072-.32-.4454-.1984-.0318-.4096.1082-.448.3182-.032.1972-.9023 4.804-6.4957 4.804s-7.2189-4.664-7.2829-4.8613c-.0512-.1654-.2112-.2736-.3712-.2736z"/><path d="m80.7455 39.018c-3.315 0-5.3629-1.4953-6.4957-2.7488-1.1647-1.2853-1.6319-2.6152-1.6831-2.7615-.096-.2927.064-.6045.3584-.6936.2943-.0891.6015.0764.6911.3627.064.1909 1.6448 4.7468 7.1357 4.7468 5.491 0 6.3102-4.4859 6.3422-4.6768.0512-.2863.3392-.4963.6336-.4518.3071.0509.5055.3245.4543.6236-.0512.2545-.3328 1.5462-1.2863 2.8061-.96 1.2726-2.8031 2.787-6.1438 2.787zm-7.6604-5.9048s-.0448 0-.0704.0127c-.1216.0382-.1856.1654-.1472.2863.0512.14.4927 1.4126 1.6191 2.6534 1.088 1.2026 3.0591 2.6407 6.2589 2.6407 3.1999 0 4.9726-1.4444 5.8878-2.6598.9088-1.2089 1.1839-2.437 1.2287-2.6724.0192-.1209-.064-.2355-.1919-.2546-.1024-.0127-.2432.0637-.2688.1909-.032.1973-.9088 4.9377-6.6558 4.9377-5.7469 0-7.3725-4.7659-7.4365-4.9695-.0319-.0954-.1215-.1654-.2239-.1654z"/></g></g></svg>