<svg width="80" height="80" viewBox="0 0 80 80" fill="none" xmlns="http://www.w3.org/2000/svg">
<path fill-rule="evenodd" clip-rule="evenodd" d="M66.2591 27.8211L39.1296 12L12 27.8211L22.1343 33.7541L12.1486 39.5775L22.9296 45.889L12.1486 52.1761L39.1784 68.0002L66.2083 52.1761L55.4273 45.889L66.2083 39.5775L56.1736 33.7256L66.2591 27.8211ZM49.1873 49.5421L39.1784 55.4016L29.1698 49.5422L24.6362 52.1865L39.1792 60.6989L53.7221 52.1865L49.1873 49.5421ZM24.6362 39.5879L28.3746 37.4074L39.1296 43.7037L49.9336 37.3787L53.7221 39.5879L39.1792 48.1003L24.6362 39.5879ZM24.4848 27.8288L39.1286 19.2911L53.7765 27.8288L39.1286 36.4042L24.4848 27.8288Z" fill="#E0E0E0"/>
</svg>
