<svg width="80" height="80" viewBox="0 0 80 80" fill="none" xmlns="http://www.w3.org/2000/svg">
<path d="M13.3333 43.3333C17 43.3333 20 40.3333 20 36.6667C20 33 17 30 13.3333 30C9.66667 30 6.66667 33 6.66667 36.6667C6.66667 40.3333 9.66667 43.3333 13.3333 43.3333ZM17.1 47C15.8667 46.8 14.6333 46.6667 13.3333 46.6667C10.0333 46.6667 6.9 47.3667 4.06667 48.6C1.6 49.6667 0 52.0667 0 54.7667V60H15V54.6333C15 51.8667 15.7667 49.2667 17.1 47ZM66.6667 43.3333C70.3333 43.3333 73.3333 40.3333 73.3333 36.6667C73.3333 33 70.3333 30 66.6667 30C63 30 60 33 60 36.6667C60 40.3333 63 43.3333 66.6667 43.3333ZM80 54.7667C80 52.0667 78.4 49.6667 75.9333 48.6C73.1 47.3667 69.9667 46.6667 66.6667 46.6667C65.3667 46.6667 64.1333 46.8 62.9 47C64.2333 49.2667 65 51.8667 65 54.6333V60H80V54.7667ZM54.1333 45.5C50.2333 43.7667 45.4333 42.5 40 42.5C34.5667 42.5 29.7667 43.8 25.8667 45.5C22.2667 47.1 20 50.7 20 54.6333V60H60V54.6333C60 50.7 57.7333 47.1 54.1333 45.5ZM26.9 53.3333C27.2 52.5667 27.3333 52.0333 29.9333 51.0333C33.1667 49.7667 36.5667 49.1667 40 49.1667C43.4333 49.1667 46.8333 49.7667 50.0667 51.0333C52.6333 52.0333 52.7667 52.5667 53.1 53.3333H26.9ZM40 26.6667C41.8333 26.6667 43.3333 28.1667 43.3333 30C43.3333 31.8333 41.8333 33.3333 40 33.3333C38.1667 33.3333 36.6667 31.8333 36.6667 30C36.6667 28.1667 38.1667 26.6667 40 26.6667ZM40 20C34.4667 20 30 24.4667 30 30C30 35.5333 34.4667 40 40 40C45.5333 40 50 35.5333 50 30C50 24.4667 45.5333 20 40 20Z" fill="#E0E0E0"/>
</svg>
